HIERARCHY
ROOT mixamorig:Hips
{
	OFFSET 0.000000 201.639420 0.000000
	CHANNELS 6 Xposition Yposition Zposition Xrotation Yrotation Zrotation
	JOINT mixamorig:Spine
	{
		OFFSET 0.006200 19.524994 -2.481800
		CHANNELS 3 Xrotation Yrotation Zrotation
		JOINT mixamorig:Spine1
		{
			OFFSET -0.000900 22.835007 -2.825400
			CHANNELS 3 Xrotation Yrotation Zrotation
			JOINT mixamorig:Spine2
			{
				OFFSET -0.020600 26.552490 -3.193300
				CHANNELS 3 Xrotation Yrotation Zrotation
				JOINT mixamorig:Neck
				{
					OFFSET -0.060000 30.701813 1.352200
					CHANNELS 3 Xrotation Yrotation Zrotation
					JOINT mixamorig:Head
					{
						OFFSET -0.087200 22.547607 3.670900
						CHANNELS 3 Xrotation Yrotation Zrotation
						JOINT mixamorig:HeadTop_End
						{
							OFFSET -0.830600 40.355194 7.893500
							CHANNELS 3 Xrotation Yrotation Zrotation
							End Site
							{
								OFFSET 0.000000 30.592346 0.000000
							}
						}
						JOINT mixamorig:RightEye
						{
							OFFSET -6.302100 18.118591 16.197100
							CHANNELS 3 Xrotation Yrotation Zrotation
							End Site
							{
								OFFSET 0.000000 30.592346 0.000000
							}
						}
						JOINT mixamorig:LeftEye
						{
							OFFSET 6.741500 18.382690 16.401899
							CHANNELS 3 Xrotation Yrotation Zrotation
							End Site
							{
								OFFSET 0.000000 30.592346 0.000000
							}
						}
					}
				}
				JOINT mixamorig:LeftShoulder
				{
					OFFSET 11.924900 18.230499 1.425400
					CHANNELS 3 Xrotation Yrotation Zrotation
					JOINT mixamorig:LeftArm
					{
						OFFSET 25.435989 -0.697632 -5.229300
						CHANNELS 3 Xrotation Yrotation Zrotation
						JOINT mixamorig:LeftForeArm
						{
							OFFSET 54.684776 0.000000 0.000000
							CHANNELS 3 Xrotation Yrotation Zrotation
							JOINT mixamorig:LeftHand
							{
								OFFSET 55.098175 0.000000 0.000000
								CHANNELS 3 Xrotation Yrotation Zrotation
								JOINT mixamorig:LeftHandMiddle1
								{
									OFFSET 23.369751 0.000000 0.000000
									CHANNELS 3 Xrotation Yrotation Zrotation
									JOINT mixamorig:LeftHandMiddle2
									{
										OFFSET 6.378677 0.000000 0.000000
										CHANNELS 3 Xrotation Yrotation Zrotation
										JOINT mixamorig:LeftHandMiddle3
										{
											OFFSET 6.148331 0.000000 0.000000
											CHANNELS 3 Xrotation Yrotation Zrotation
											JOINT mixamorig:LeftHandMiddle4
											{
												OFFSET 6.582504 0.000000 0.000000
												CHANNELS 3 Xrotation Yrotation Zrotation
												End Site
												{
													OFFSET -1.168900 6.395691 1.028606
												}
											}
										}
									}
								}
								JOINT mixamorig:LeftHandThumb1
								{
									OFFSET 7.235672 -3.848206 5.434273
									CHANNELS 3 Xrotation Yrotation Zrotation
									JOINT mixamorig:LeftHandThumb2
									{
										OFFSET 6.568451 -3.792297 3.792300
										CHANNELS 3 Xrotation Yrotation Zrotation
										JOINT mixamorig:LeftHandThumb3
										{
											OFFSET 6.063080 -3.500519 3.500518
											CHANNELS 3 Xrotation Yrotation Zrotation
											JOINT mixamorig:LeftHandThumb4
											{
												OFFSET 4.793182 -2.767334 2.767349
												CHANNELS 3 Xrotation Yrotation Zrotation
												End Site
												{
													OFFSET 0.101639 6.054260 1.275483
												}
											}
										}
									}
								}
								JOINT mixamorig:LeftHandIndex1
								{
									OFFSET 23.101074 -0.309540 4.992809
									CHANNELS 3 Xrotation Yrotation Zrotation
									JOINT mixamorig:LeftHandIndex2
									{
										OFFSET 6.226883 0.000000 0.000000
										CHANNELS 3 Xrotation Yrotation Zrotation
										JOINT mixamorig:LeftHandIndex3
										{
											OFFSET 6.094330 0.000000 0.000000
											CHANNELS 3 Xrotation Yrotation Zrotation
											JOINT mixamorig:LeftHandIndex4
											{
												OFFSET 5.482605 0.000000 0.000000
												CHANNELS 3 Xrotation Yrotation Zrotation
												End Site
												{
													OFFSET -1.427902 5.233032 0.797164
												}
											}
										}
									}
								}
								JOINT mixamorig:LeftHandRing1
								{
									OFFSET 22.299240 0.021149 -3.964172
									CHANNELS 3 Xrotation Yrotation Zrotation
									JOINT mixamorig:LeftHandRing2
									{
										OFFSET 6.321869 0.000000 0.000000
										CHANNELS 3 Xrotation Yrotation Zrotation
										JOINT mixamorig:LeftHandRing3
										{
											OFFSET 5.899796 0.000000 0.000000
											CHANNELS 3 Xrotation Yrotation Zrotation
											JOINT mixamorig:LeftHandRing4
											{
												OFFSET 6.517899 0.000000 0.000000
												CHANNELS 3 Xrotation Yrotation Zrotation
												End Site
												{
													OFFSET -1.637299 6.232208 0.980890
												}
											}
										}
									}
								}
								JOINT mixamorig:LeftHandPinky1
								{
									OFFSET 20.463791 -0.302338 -8.562233
									CHANNELS 3 Xrotation Yrotation Zrotation
									JOINT mixamorig:LeftHandPinky2
									{
										OFFSET 6.908646 0.000000 0.000000
										CHANNELS 3 Xrotation Yrotation Zrotation
										JOINT mixamorig:LeftHandPinky3
										{
											OFFSET 4.622849 0.000000 0.000000
											CHANNELS 3 Xrotation Yrotation Zrotation
											JOINT mixamorig:LeftHandPinky4
											{
												OFFSET 5.216080 0.000000 0.000000
												CHANNELS 3 Xrotation Yrotation Zrotation
												End Site
												{
													OFFSET -0.606308 5.116241 0.814926
												}
											}
										}
									}
								}
							}
						}
					}
				}
				JOINT mixamorig:RightShoulder
				{
					OFFSET -12.001300 18.284088 1.348900
					CHANNELS 3 Xrotation Yrotation Zrotation
					JOINT mixamorig:RightArm
					{
						OFFSET -25.308500 -0.751312 -5.164599
						CHANNELS 3 Xrotation Yrotation Zrotation
						JOINT mixamorig:RightForeArm
						{
							OFFSET -54.684429 0.000000 0.000000
							CHANNELS 3 Xrotation Yrotation Zrotation
							JOINT mixamorig:RightHand
							{
								OFFSET -55.150291 0.000000 0.000000
								CHANNELS 3 Xrotation Yrotation Zrotation
								JOINT mixamorig:RightHandMiddle1
								{
									OFFSET -23.317566 0.000000 0.000000
									CHANNELS 3 Xrotation Yrotation Zrotation
									JOINT mixamorig:RightHandMiddle2
									{
										OFFSET -6.378403 0.000000 0.000000
										CHANNELS 3 Xrotation Yrotation Zrotation
										JOINT mixamorig:RightHandMiddle3
										{
											OFFSET -6.148193 0.000000 0.000000
											CHANNELS 3 Xrotation Yrotation Zrotation
											JOINT mixamorig:RightHandMiddle4
											{
												OFFSET -6.583389 0.000000 0.000000
												CHANNELS 3 Xrotation Yrotation Zrotation
												End Site
												{
													OFFSET 1.171692 6.395905 1.029786
												}
											}
										}
									}
								}
								JOINT mixamorig:RightHandThumb1
								{
									OFFSET -7.190521 -3.860474 5.435846
									CHANNELS 3 Xrotation Yrotation Zrotation
									JOINT mixamorig:RightHandThumb2
									{
										OFFSET -6.567429 -3.791718 3.791708
										CHANNELS 3 Xrotation Yrotation Zrotation
										JOINT mixamorig:RightHandThumb3
										{
											OFFSET -6.062469 -3.500153 3.500166
											CHANNELS 3 Xrotation Yrotation Zrotation
											JOINT mixamorig:RightHandThumb4
											{
												OFFSET -4.792618 -2.767029 2.767022
												CHANNELS 3 Xrotation Yrotation Zrotation
												End Site
												{
													OFFSET -0.100327 6.053253 1.276754
												}
											}
										}
									}
								}
								JOINT mixamorig:RightHandIndex1
								{
									OFFSET -23.048981 -0.310791 4.992554
									CHANNELS 3 Xrotation Yrotation Zrotation
									JOINT mixamorig:RightHandIndex2
									{
										OFFSET -6.227539 0.000000 0.000000
										CHANNELS 3 Xrotation Yrotation Zrotation
										JOINT mixamorig:RightHandIndex3
										{
											OFFSET -6.095047 0.000000 0.000000
											CHANNELS 3 Xrotation Yrotation Zrotation
											JOINT mixamorig:RightHandIndex4
											{
												OFFSET -5.484772 0.000000 0.000000
												CHANNELS 3 Xrotation Yrotation Zrotation
												End Site
												{
													OFFSET 1.420593 5.237305 0.797056
												}
											}
										}
									}
								}
								JOINT mixamorig:RightHandRing1
								{
									OFFSET -22.246323 0.020569 -3.963762
									CHANNELS 3 Xrotation Yrotation Zrotation
									JOINT mixamorig:RightHandRing2
									{
										OFFSET -6.322128 0.000000 0.000000
										CHANNELS 3 Xrotation Yrotation Zrotation
										JOINT mixamorig:RightHandRing3
										{
											OFFSET -5.900024 0.000000 0.000000
											CHANNELS 3 Xrotation Yrotation Zrotation
											JOINT mixamorig:RightHandRing4
											{
												OFFSET -6.518356 0.000000 0.000000
												CHANNELS 3 Xrotation Yrotation Zrotation
												End Site
												{
													OFFSET 1.636398 6.232697 0.982186
												}
											}
										}
									}
								}
								JOINT mixamorig:RightHandPinky1
								{
									OFFSET -20.411011 -0.303314 -8.561701
									CHANNELS 3 Xrotation Yrotation Zrotation
									JOINT mixamorig:RightHandPinky2
									{
										OFFSET -6.907349 0.000000 0.000000
										CHANNELS 3 Xrotation Yrotation Zrotation
										JOINT mixamorig:RightHandPinky3
										{
											OFFSET -4.623840 0.000000 0.000000
											CHANNELS 3 Xrotation Yrotation Zrotation
											JOINT mixamorig:RightHandPinky4
											{
												OFFSET -5.218353 0.000000 0.000000
												CHANNELS 3 Xrotation Yrotation Zrotation
												End Site
												{
													OFFSET 0.602097 5.118835 0.816273
												}
											}
										}
									}
								}
							}
						}
					}
				}
			}
		}
	}
	JOINT mixamorig:LeftUpLeg
	{
		OFFSET 18.168400 -13.561905 -0.039000
		CHANNELS 3 Xrotation Yrotation Zrotation
		JOINT mixamorig:LeftLeg
		{
			OFFSET 0.577358 -80.825211 -3.695000
			CHANNELS 3 Xrotation Yrotation Zrotation
			JOINT mixamorig:LeftFoot
			{
				OFFSET -0.577356 -83.370262 -6.520700
				CHANNELS 3 Xrotation Yrotation Zrotation
				JOINT mixamorig:LeftToeBase
				{
					OFFSET 0.750401 -20.798306 25.135401
					CHANNELS 3 Xrotation Yrotation Zrotation
					JOINT mixamorig:LeftToe_End
					{
						OFFSET -0.000500 0.001200 19.917799
						CHANNELS 3 Xrotation Yrotation Zrotation
						End Site
						{
							OFFSET 0.000000 19.917805 0.000000
						}
					}
				}
			}
		}
	}
	JOINT mixamorig:RightUpLeg
	{
		OFFSET -18.162500 -13.585098 -0.041000
		CHANNELS 3 Xrotation Yrotation Zrotation
		JOINT mixamorig:RightLeg
		{
			OFFSET -0.595024 -80.945297 -3.631900
			CHANNELS 3 Xrotation Yrotation Zrotation
			JOINT mixamorig:RightFoot
			{
				OFFSET 0.595024 -83.218193 -6.561200
				CHANNELS 3 Xrotation Yrotation Zrotation
				JOINT mixamorig:RightToeBase
				{
					OFFSET -0.753601 -20.807106 25.115000
					CHANNELS 3 Xrotation Yrotation Zrotation
					JOINT mixamorig:RightToe_End
					{
						OFFSET 0.000299 0.001700 19.918200
						CHANNELS 3 Xrotation Yrotation Zrotation
						End Site
						{
							OFFSET 0.000000 19.918203 0.000000
						}
					}
				}
			}
		}
	}
}
MOTION
Frames: 4
Frame Time: 0.033333
0.389864 197.368774 -0.062772 -0.893085 1.580405 -4.939450 1.289226 -1.209695 2.597201 0.728743 0.264195 5.944686 0.710789 0.781493 5.851999 1.045309 -0.304693 -2.163987 1.584930 0.544179 -8.140494 0.000000 -0.000000 0.000000 0.000000 -0.000000 0.000000 0.000000 -0.000000 0.000000 3.582361 -13.764041 -5.044453 4.032782 3.514245 -83.678369 0.000005 -14.506746 0.000045 -27.592511 3.698850 -9.416232 0.912580 8.769257 -15.831731 0.919069 3.991121 -33.400387 0.170571 1.488885 -12.264427 0.000002 -0.000000 0.000003 18.491274 -0.461405 10.916087 1.284028 32.757601 -3.088977 2.117133 9.311152 -0.358618 0.000001 0.000001 0.000000 0.339564 4.671341 -7.844253 0.387036 2.823585 -20.566231 0.034630 0.816834 -10.169810 0.000001 0.000001 -0.000002 2.555825 11.673032 -26.909197 1.710653 3.886786 -40.215461 0.544860 1.835069 -19.344160 -0.000002 0.000001 0.000000 5.576079 16.029160 -36.940621 1.378692 4.077641 -45.645632 0.486584 2.853396 -20.524732 -0.000001 -0.000000 0.000001 4.508129 3.324373 5.471576 -1.219628 0.655870 67.345419 0.000001 17.736782 -0.000021 -11.193155 -9.123242 10.139291 0.912587 -8.769261 15.831740 0.919072 -3.991140 33.400414 0.216472 -1.688829 15.898059 0.000002 -0.000001 0.000003 18.491277 0.461430 -10.916090 1.284057 -32.757611 3.088951 2.008694 -8.430478 1.114708 0.000001 -0.000000 -0.000000 0.339563 -4.671352 7.844268 0.387035 -2.823572 20.566266 -0.193127 -0.216346 13.843925 -0.000001 0.000000 0.000001 2.555808 -11.673036 26.909188 1.710653 -3.886787 40.215464 -0.157954 0.035283 17.815345 -0.000001 0.000000 -0.000001 5.576084 -16.029158 36.940651 1.378689 -4.077639 45.645611 -0.727747 -0.247557 22.122750 0.000000 -0.000000 0.000001 -21.762388 10.167029 16.261176 23.290682 9.557533 2.420555 -0.302904 3.254003 -9.014208 -0.441964 0.000007 0.000000 -0.000000 -0.000002 -0.000000 -1.841929 -4.999982 10.403422 9.672455 -5.099470 3.266164 -6.900884 0.890260 -8.325013 -0.548656 0.000000 -0.000001 0.000000 -0.000001 -0.000000 
2.927834 197.124542 -1.197699 -0.892964 1.580206 -4.934228 1.207003 -1.651849 2.572241 0.711251 -0.198484 6.059672 0.728783 0.320847 5.973786 0.772631 0.496547 -2.044221 1.382494 2.308391 -8.449363 -0.000000 -0.000000 -0.000000 -0.000000 -0.000000 -0.000000 -0.000000 -0.000000 -0.000000 3.601046 -13.940709 -4.833658 4.402102 3.617511 -83.997100 -0.000004 -14.339999 -0.000036 -27.495756 3.992386 -9.314924 0.909485 8.766644 -15.760301 0.919046 3.991077 -33.399844 0.170568 1.488841 -12.263948 0.000002 -0.000000 0.000000 18.529212 -0.397230 10.897081 1.292454 32.711740 -3.068292 2.121742 9.323300 -0.363034 0.000001 -0.000002 -0.000000 0.344071 4.675086 -7.778535 0.386846 2.823082 -20.560982 0.034553 0.816314 -10.164596 -0.000001 0.000001 -0.000002 2.555835 11.681428 -26.862682 1.711212 3.887325 -40.223240 0.545203 1.835804 -19.352315 0.000001 -0.000001 0.000001 5.582724 16.053723 -36.888564 1.378623 4.077557 -45.644590 0.486544 2.853304 -20.523699 -0.000001 0.000001 0.000001 4.587069 3.177644 5.797696 -1.128749 0.094405 67.048463 0.000002 17.432185 -0.000015 -10.833614 -8.190171 10.704449 0.954684 -8.859924 16.326524 0.919496 -3.991797 33.408282 0.216705 -1.689643 15.906529 0.000001 0.000000 -0.000000 18.352532 1.029950 -11.110896 1.282184 -33.069498 3.080744 2.016093 -8.520135 1.142943 0.000000 0.000003 0.000000 0.351362 -4.767985 8.557070 0.385542 -2.819608 20.524269 -0.193283 -0.211974 13.802068 -0.000000 0.000000 0.000001 2.594315 -11.681877 27.331777 1.709047 -3.885231 40.193058 -0.158163 0.037629 17.792428 -0.000000 0.000000 0.000002 5.681648 -16.081581 37.350866 1.373619 -4.071764 45.568358 -0.727415 -0.238853 22.045921 -0.000001 -0.000001 0.000001 -22.392830 10.588571 16.281183 25.223882 10.095680 1.677019 -1.495836 4.807853 -8.246215 -0.208583 -0.000010 -0.000001 0.000000 0.000002 0.000000 -4.413775 -4.978399 9.044303 13.840672 -4.515829 3.572849 -8.185453 2.428461 -7.409400 -0.489258 -0.000002 0.000001 -0.000000 0.000000 0.000000 
5.896484 196.886963 -2.343306 -0.893096 1.580120 -4.931993 1.134393 -2.091686 2.554578 0.698026 -0.676708 6.173437 0.750575 -0.155564 6.094833 0.510678 1.214561 -1.899417 1.143846 3.924593 -8.708240 -0.000000 0.000000 -0.000000 -0.000000 0.000000 -0.000000 -0.000000 0.000000 -0.000000 3.619785 -14.134183 -4.619231 4.813089 3.735478 -84.331451 0.000004 -14.143624 0.000029 -27.365453 4.348867 -9.229368 0.906388 8.764409 -15.685405 0.918972 3.990971 -33.398508 0.170533 1.488719 -12.262724 0.000001 -0.000001 0.000005 18.580577 -0.343424 10.865100 1.291799 32.663460 -3.039475 2.126792 9.336693 -0.367851 0.000001 0.000006 0.000001 0.349497 4.681470 -7.712566 0.386681 2.822648 -20.556385 0.034489 0.815845 -10.159976 -0.000001 -0.000000 0.000000 2.556187 11.690831 -26.814809 1.711600 3.887710 -40.228762 0.545447 1.836335 -19.358228 -0.000000 0.000000 -0.000002 5.590338 16.080045 -36.835815 1.378613 4.077560 -45.644553 0.486548 2.853299 -20.523667 0.000000 0.000001 0.000002 4.663181 3.035771 6.101791 -1.047018 -0.555263 66.739281 -0.000001 17.291937 -0.000001 -10.528595 -7.137724 11.123215 0.992620 -8.936850 16.779442 0.920059 -3.992692 33.418869 0.217011 -1.690707 15.917606 0.000001 -0.000000 0.000001 18.188831 1.613191 -11.330303 1.279138 -33.375071 3.069543 2.016433 -8.607030 1.128281 0.000004 -0.000000 -0.000000 0.361792 -4.854606 9.220230 0.384115 -2.815788 20.483862 -0.193429 -0.207763 13.761770 0.000001 -0.000000 0.000000 2.629276 -11.689024 27.719959 1.707730 -3.883957 40.174660 -0.158334 0.039562 17.773542 -0.000000 0.000000 0.000001 5.775751 -16.120534 37.733004 1.368789 -4.066156 45.494705 -0.727094 -0.230569 21.972744 -0.000002 0.000001 -0.000003 -23.014078 11.349151 16.164292 27.096962 10.130506 1.034755 -2.846507 6.566810 -7.327049 -0.051667 0.000003 -0.000003 -0.000000 -0.000002 -0.000000 -6.459697 -4.697741 7.558829 16.938275 -3.880097 3.976685 -9.033915 3.723297 -6.460322 -0.665220 0.000001 -0.000000 -0.000000 -0.000000 -0.000000 
9.213500 196.657501 -3.361738 -0.893179 1.580156 -4.929739 1.089175 -2.536461 2.555704 0.697771 -1.208994 6.279192 0.784576 -0.686666 6.209129 0.274101 1.706020 -1.697360 0.817600 5.160867 -8.859763 0.000000 -0.000000 -0.000000 0.000000 -0.000000 -0.000000 0.000000 -0.000000 -0.000000 3.637019 -14.337479 -4.413962 5.339176 3.908494 -84.669600 0.000002 -13.861696 0.000023 -27.168542 4.830417 -9.144550 0.902839 8.762546 -15.594092 0.918777 3.990661 -33.394912 0.170452 1.488390 -12.259319 0.000001 -0.000001 0.000003 18.662269 -0.302705 10.805551 1.274537 32.604670 -2.992430 2.132865 9.352715 -0.373649 0.000001 0.000005 -0.000002 0.357941 4.695316 -7.636842 0.386461 2.822056 -20.550159 0.034403 0.815223 -10.153776 -0.000001 -0.000000 0.000000 2.556460 11.702171 -26.755664 1.711697 3.887795 -40.230046 0.545524 1.836500 -19.360076 0.000000 0.000000 -0.000001 5.599954 16.111337 -36.776853 1.378829 4.077798 -45.647759 0.486671 2.853593 -20.526870 0.000000 0.000000 -0.000001 4.729636 2.934928 6.378273 -1.001624 -1.438965 66.389685 -0.000002 17.579869 0.000009 -10.338921 -5.785531 11.179360 1.011798 -8.963932 17.098030 0.921129 -3.994375 33.438875 0.217558 -1.692622 15.937512 0.000001 -0.000000 -0.000001 17.964103 2.211372 -11.597278 1.270363 -33.649504 3.044843 1.997535 -8.681527 1.000000 0.000001 0.000002 0.000000 0.365631 -4.912934 9.724359 0.382896 -2.812530 20.449397 -0.193552 -0.204168 13.727355 -0.000001 -0.000001 0.000005 2.649396 -11.683701 27.998648 1.707383 -3.883614 40.169763 -0.158388 0.040124 17.768051 -0.000001 -0.000000 0.000001 5.835679 -16.124782 38.032003 1.365024 -4.061775 45.437140 -0.726824 -0.224082 21.915485 -0.000001 0.000000 -0.000001 -23.566994 12.520620 15.947930 28.829098 10.111372 0.562690 -4.344729 8.170009 -6.342628 0.000004 -0.000000 -0.000003 0.000000 0.000002 -0.000000 -8.108740 -4.146659 5.971426 19.276672 -3.129293 4.493719 -9.608660 4.896136 -5.501440 -0.879078 -0.000000 -0.000000 0.000000 -0.000000 0.000000 
